<svg width="17" height="16" viewBox="0 0 17 16" fill="none" xmlns="http://www.w3.org/2000/svg">
<path d="M13.6889 1.1672C12.7271 1.392 11.994 2.1072 11.7888 3.01872C11.5097 4.26256 12.3269 5.49376 13.6587 5.83888C13.9546 5.91808 14.6305 5.91808 14.9331 5.83888C15.6461 5.6584 16.2683 5.18048 16.581 4.56976C16.7861 4.16784 16.8332 3.97152 16.8298 3.47776C16.8264 3.10432 16.8164 3.01888 16.7391 2.79728C16.517 2.17376 16.0631 1.66096 15.4846 1.37936C14.9263 1.11024 14.2673 1.03104 13.6889 1.1672ZM14.7818 1.62608C15.663 1.83504 16.2918 2.55984 16.3389 3.4144C16.3994 4.55696 15.3738 5.50656 14.163 5.43056C13.3392 5.3768 12.6262 4.8704 12.3537 4.1424C12.2395 3.82912 12.2091 3.36384 12.2898 3.06624C12.4748 2.36672 13.0599 1.80976 13.7897 1.62928C14.0352 1.56912 14.533 1.56592 14.7818 1.62608Z" fill="black"/>
<path d="M13.9915 2.74976V3.22448H13.4703H12.9491V3.49344V3.75936L13.4637 3.7688L13.9749 3.77824L13.9849 4.25936L13.9949 4.74368H14.2943H14.5969V4.27216V3.80048L14.7011 3.7784C14.7582 3.76576 14.9298 3.75936 15.0812 3.76576C15.2291 3.76896 15.4175 3.77216 15.4982 3.76896L15.6395 3.76256V3.4936V3.22464H15.1181H14.5969V2.74992V2.2752H14.2943H13.9917V2.74976H13.9915Z" fill="black"/>
<path d="M0.170044 2.0376V2.27504H0.281054C0.587054 2.27824 1.19242 2.34464 1.41427 2.4048C2.05993 2.57248 2.41982 2.93648 2.63844 3.6424C2.73925 3.97152 3.22698 5.8232 3.63719 7.43424C4.25599 9.86816 4.38383 10.3018 4.57882 10.688C4.81767 11.1565 5.18079 11.4222 5.80299 11.5869L6.0721 11.6597L9.69735 11.6691L13.3226 11.6786L13.3126 11.4475L13.3025 11.2165L9.70432 11.2006C6.42553 11.1848 6.08927 11.1784 5.91094 11.1278C5.62517 11.0486 5.41658 10.9379 5.25848 10.7829C5.11721 10.6467 4.90879 10.267 4.8617 10.0707L4.83807 9.96624H8.88696H12.9325L13.1342 9.8744C13.3629 9.77312 13.5883 9.57376 13.6689 9.40288C13.6992 9.33952 13.9412 8.58304 14.2069 7.72544L14.6879 6.16816H14.4256H14.1633L14.1095 6.34224L14.0558 6.51632H12.4753H10.8948L10.9151 6.31696C10.9251 6.20928 10.9487 5.78528 10.9656 5.37696C10.9858 4.96864 11.0092 4.5288 11.0194 4.40208L11.0397 4.17424H11.292C11.5374 4.17424 11.5442 4.17104 11.524 4.10144C11.514 4.06352 11.4937 3.95584 11.4837 3.8672L11.4601 3.69952L7.32704 3.69312L3.1906 3.68368L3.06616 3.34816C2.89803 2.90816 2.76016 2.68032 2.50125 2.44288C2.25237 2.20864 1.8085 1.99344 1.41495 1.9112C1.21316 1.87008 0.540644 1.80672 0.231244 1.80048C0.176844 1.80016 0.170044 1.83184 0.170044 2.0376ZM6.44185 4.27536C6.47211 4.44944 7.26584 9.4312 7.26584 9.46288C7.26584 9.47872 6.72779 9.49136 5.97452 9.49136H4.6832L4.66637 9.41856C4.59905 9.13056 3.66762 5.52544 3.50612 4.92416L3.30433 4.17408H4.86476H6.42179L6.44185 4.27536ZM10.5144 4.38608C10.5043 4.5064 10.4807 4.97168 10.4607 5.42416C10.4404 5.8768 10.417 6.3072 10.4069 6.38L10.3901 6.51616H8.8431C7.90827 6.51616 7.2995 6.50352 7.2995 6.48768C7.2995 6.456 6.97667 4.40512 6.94641 4.25952L6.93298 4.17408H8.73209H10.5346L10.5144 4.38608ZM10.3192 8.07344C10.289 8.67168 10.2621 9.23504 10.2621 9.32368L10.2587 9.49136H9.02109H7.78349L7.5919 8.2792C7.48429 7.61456 7.40014 7.0512 7.40014 7.02896C7.40014 7.00048 7.71957 6.99104 8.88985 6.99104H10.3763L10.3192 8.07344ZM13.8907 7.01936C13.8907 7.0352 13.7394 7.5352 13.5577 8.1304C13.2786 9.03872 13.208 9.22864 13.1273 9.30784C12.9423 9.49136 12.9423 9.49136 11.8057 9.49136C10.8372 9.49136 10.7633 9.48816 10.7633 9.4344C10.7599 9.29504 10.8709 7.06688 10.8843 7.02896C10.8943 7.00048 11.224 6.99104 12.3942 6.99104C13.2888 6.99088 13.8907 7.00352 13.8907 7.01936Z" fill="black"/>
<path d="M4.45781 12.0994C4.01734 12.2355 3.69434 12.4982 3.50275 12.8749C3.38511 13.1091 3.38171 13.125 3.38171 13.4826C3.38171 13.8402 3.38511 13.8498 3.50955 14.0902C3.67428 14.4035 3.8963 14.6125 4.21913 14.7643C4.43435 14.8624 4.5117 14.8814 4.76738 14.8941C5.23811 14.9194 5.58457 14.8054 5.9142 14.5142C6.227 14.2325 6.39173 13.8781 6.39173 13.4792C6.39173 12.9221 6.0689 12.4442 5.52082 12.1878C5.28877 12.0802 5.24508 12.0707 4.93228 12.0643C4.71672 12.0582 4.54179 12.0709 4.45781 12.0994ZM5.23454 12.5837C5.45979 12.6565 5.75236 12.9318 5.82971 13.1438C6.05173 13.7579 5.61109 14.3877 4.93857 14.4226C4.60894 14.4416 4.40392 14.3656 4.16847 14.1472C3.92979 13.9194 3.85244 13.7294 3.8759 13.4003C3.88933 13.2262 3.91296 13.1344 3.98011 13.0269C4.09452 12.8434 4.34 12.6408 4.51816 12.5806C4.70992 12.5171 5.03275 12.5171 5.23454 12.5837Z" fill="black"/>
<path d="M12.3 12.0867C11.9704 12.1659 11.5534 12.4602 11.3786 12.7451C11.1095 13.1755 11.1029 13.7358 11.3584 14.1821C11.4626 14.3626 11.772 14.6474 11.9603 14.7392C12.2261 14.8658 12.4715 14.9133 12.791 14.8942C13.0466 14.8816 13.1238 14.8626 13.3358 14.7645C13.8873 14.5082 14.1933 14.0523 14.1933 13.4826C14.1933 13.1755 14.1125 12.9192 13.941 12.6755C13.7829 12.4509 13.6014 12.3083 13.2988 12.1755C13.0936 12.0869 13.0298 12.071 12.7473 12.0648C12.5723 12.0614 12.3706 12.0709 12.3 12.0867ZM13.134 12.6154C13.3156 12.7072 13.5342 12.9256 13.6184 13.0997C13.7193 13.3086 13.7159 13.663 13.6082 13.8752C13.5107 14.0746 13.2348 14.312 13.0264 14.3784C12.5355 14.5366 12.0209 14.3341 11.7654 13.8814C11.7014 13.7738 11.688 13.6979 11.688 13.4795C11.688 13.2485 11.7014 13.1883 11.7788 13.0491C11.8864 12.856 12.1285 12.6472 12.3202 12.5806C12.5219 12.5109 12.9557 12.5299 13.134 12.6154Z" fill="black"/>
</svg>
